<?xml version="1.0" encoding="utf-8"?>
<!-- Generator: Adobe Illustrator 25.2.1, SVG Export Plug-In . SVG Version: 6.00 Build 0)  -->
<!DOCTYPE svg PUBLIC "-//W3C//DTD SVG 1.1//EN" "http://www.w3.org/Graphics/SVG/1.1/DTD/svg11.dtd" [
	<!ENTITY ns_extend "http://ns.adobe.com/Extensibility/1.0/">
	<!ENTITY ns_ai "http://ns.adobe.com/AdobeIllustrator/10.0/">
	<!ENTITY ns_graphs "http://ns.adobe.com/Graphs/1.0/">
	<!ENTITY ns_vars "http://ns.adobe.com/Variables/1.0/">
	<!ENTITY ns_imrep "http://ns.adobe.com/ImageReplacement/1.0/">
	<!ENTITY ns_sfw "http://ns.adobe.com/SaveForWeb/1.0/">
	<!ENTITY ns_custom "http://ns.adobe.com/GenericCustomNamespace/1.0/">
	<!ENTITY ns_adobe_xpath "http://ns.adobe.com/XPath/1.0/">
]>
<svg version="1.1" id="Capa_1" xmlns:x="&ns_extend;" xmlns:i="&ns_ai;" xmlns:graph="&ns_graphs;"
	 xmlns="http://www.w3.org/2000/svg" xmlns:xlink="http://www.w3.org/1999/xlink" x="0px" y="0px" viewBox="0 0 649 498.9"
	 style="enable-background:new 0 0 649 498.9;" xml:space="preserve">
<style type="text/css">
	.st0{fill:#606060;}
</style>
<metadata>
	<sfw  xmlns="&ns_sfw;">
		<slices></slices>
		<sliceSourceBounds  bottomLeftOrigin="true" height="925.3" width="1288.8" x="-688.3" y="-469.8"></sliceSourceBounds>
	</sfw>
</metadata>
<image style="overflow:visible;enable-background:new    ;" width="512" height="512" xlink:href="bloquear.png"  transform="matrix(0.75 0 0 0.75 -688.3405 584.6808)">
</image>
<path class="st0" d="M600.5,120.9c0,95,0,190.1,0,285.1c-1,3.2-1.9,6.4-3,9.6c-8.5,25.2-30.8,40.9-58.2,40.9
	c-142.9,0-285.8,0-428.7,0c-1.4,0-2.9,0-4.3-0.1c-30.9-1.3-56.7-27.3-56.7-57.8c-0.1-91.3-0.1-182.5,0-273.8c0-1.3,0.3-2.6,0.5-4.3
	c1.9,1.2,3.3,2,4.6,2.9c73.4,49,147.2,97.5,220.2,147.1c29.6,20.1,71,20,100.3,0.1c73-49.6,146.8-98.2,220.3-147.1
	C597,122.6,598.8,121.8,600.5,120.9z"/>
<path class="st0" d="M52.7,83.6C61,62.3,76,49.2,98.3,44.6c4.2-0.9,8.5-1.1,12.8-1.1c142.7-0.1,285.4-0.1,428.1,0
	c27.2,0,49.5,15.4,58,40.3c-1.5,1-3,2.2-4.6,3.2c-79.1,52.7-158.2,105.5-237.3,158.2c-19,12.6-41.5,12.6-60.5-0.1
	C215.9,192.5,137.1,140,58.3,87.4C56.5,86.2,54.8,85,52.7,83.6z"/>
</svg>
