<?xml version="1.0" encoding="utf-8"?>
<!-- Generator: Adobe Illustrator 25.2.1, SVG Export Plug-In . SVG Version: 6.00 Build 0)  -->
<!DOCTYPE svg PUBLIC "-//W3C//DTD SVG 1.1//EN" "http://www.w3.org/Graphics/SVG/1.1/DTD/svg11.dtd" [
	<!ENTITY ns_extend "http://ns.adobe.com/Extensibility/1.0/">
	<!ENTITY ns_ai "http://ns.adobe.com/AdobeIllustrator/10.0/">
	<!ENTITY ns_graphs "http://ns.adobe.com/Graphs/1.0/">
	<!ENTITY ns_vars "http://ns.adobe.com/Variables/1.0/">
	<!ENTITY ns_imrep "http://ns.adobe.com/ImageReplacement/1.0/">
	<!ENTITY ns_sfw "http://ns.adobe.com/SaveForWeb/1.0/">
	<!ENTITY ns_custom "http://ns.adobe.com/GenericCustomNamespace/1.0/">
	<!ENTITY ns_adobe_xpath "http://ns.adobe.com/XPath/1.0/">
]>
<svg version="1.1" id="Capa_1" xmlns:x="&ns_extend;" xmlns:i="&ns_ai;" xmlns:graph="&ns_graphs;"
	 xmlns="http://www.w3.org/2000/svg" xmlns:xlink="http://www.w3.org/1999/xlink" x="0px" y="0px" viewBox="0 0 649 498.9"
	 style="enable-background:new 0 0 649 498.9;" xml:space="preserve">
<style type="text/css">
	.st0{fill:#616160;}
</style>
<metadata>
	<sfw  xmlns="&ns_sfw;">
		<slices></slices>
		<sliceSourceBounds  bottomLeftOrigin="true" height="961.7" width="682.6" x="47.3" y="-1168.9"></sliceSourceBounds>
	</sfw>
</metadata>
<path class="st0" d="M200.8,472.6c-30,0-60,0-90,0c-21.2,0-42.4,0-63.6,0c-20.3,0-33.4-14-31.9-34.2c1.7-23.2,4.8-46.3,11.3-68.7
	c11.5-39.9,37.9-65.4,77.3-77.7c2.7-0.8,4.5-0.4,6.6,1.6c20.7,19.7,44.5,33.6,73.2,37.7c31.6,4.6,60.4-2.9,86.6-20.7
	c7.6-5.1,14.3-11.6,21.6-17.2c1.4-1.1,4-2,5.6-1.5c42.1,12.9,69.4,40.5,79.3,83.6c4.8,20.7,7.4,42.1,9.8,63.3
	c2.2,19.4-11.7,33.8-31.2,33.8C303.9,472.6,252.4,472.6,200.8,472.6z"/>
<path class="st0" d="M402.1,440.9c-2.2-10.5-2.2-20.8-4.6-30.9c-6.4-53.8-19.8-84.4-57.7-113.4c-0.7-0.3-28.3-14.9-29.9-15.8
	c13.8-9.4,16.8-11.5,19.9-13.2c11.4-6.6,14.3-6.6,22-7.2c3-0.2,4.8-0.5,7.1,1.6c17.4,16.7,37.3,29.3,60.9,35.2
	c35.9,9,69,2,99.4-18.6c7.5-5.1,14-11.4,21.2-16.9c1.3-1,3.5-2,4.8-1.6c15.7,4.9,30,12,42.9,22.7c24.4,20,35.9,46.4,40.6,76.6
	c2.3,15.1,4.6,30.2,6.3,45.4c1.8,15.4-4.5,27.6-17.3,33.2c-4.2,1.8-9,2.8-13.6,2.8c-60.3,0.2-120.6,0.1-180.9,0
	C416.9,440.9,408.7,440.9,402.1,440.9z"/>
<path class="st0" d="M349.4,111.8c0.5-44.7,29.4-81.7,73.5-92.3c38.4-9.3,72.7-1,100.5,27.8c22.7,23.5,29.2,52.5,23.5,84.1
	c-6.3,35.3-21.5,66.3-48,91.2c-13.6,12.8-29.3,21.3-48.4,21.8c-18.4,0.5-34.1-6.9-47.7-18.8c-29-25.4-44.9-58.1-51.7-95.6
	C350.2,124,350,117.8,349.4,111.8z"/>
<path class="st0" d="M201.2,47.4c41.3,1.8,73.1,18.9,91.3,57.3c9.3,19.6,10,40.5,5.8,61.4c-6.1,30.3-19,57.3-39.8,80.4
	c-9.8,10.9-21.2,19.9-35.1,25.1c-23.1,8.8-44.2,3.7-63.5-10.5c-17-12.4-29.3-28.8-39-47.3c-12.4-23.7-20.2-48.6-19.2-75.8
	c1.4-37.7,27.4-72.3,63.2-84.4C176.7,49.8,188.7,47.5,201.2,47.4z"/>
<path d="M687.1,973.6c5.1,4.1,6.9,4,10.4-0.9c1.1,3.8-1.6,4.5-3.9,4.6C691.1,977.5,687.6,978.4,687.1,973.6z"/>
</svg>
