<?xml version="1.0" encoding="utf-8"?>
<!-- Generator: Adobe Illustrator 25.2.1, SVG Export Plug-In . SVG Version: 6.00 Build 0)  -->
<!DOCTYPE svg PUBLIC "-//W3C//DTD SVG 1.1//EN" "http://www.w3.org/Graphics/SVG/1.1/DTD/svg11.dtd" [
	<!ENTITY ns_extend "http://ns.adobe.com/Extensibility/1.0/">
	<!ENTITY ns_ai "http://ns.adobe.com/AdobeIllustrator/10.0/">
	<!ENTITY ns_graphs "http://ns.adobe.com/Graphs/1.0/">
	<!ENTITY ns_vars "http://ns.adobe.com/Variables/1.0/">
	<!ENTITY ns_imrep "http://ns.adobe.com/ImageReplacement/1.0/">
	<!ENTITY ns_sfw "http://ns.adobe.com/SaveForWeb/1.0/">
	<!ENTITY ns_custom "http://ns.adobe.com/GenericCustomNamespace/1.0/">
	<!ENTITY ns_adobe_xpath "http://ns.adobe.com/XPath/1.0/">
]>
<svg version="1.1" id="Capa_1" xmlns:x="&ns_extend;" xmlns:i="&ns_ai;" xmlns:graph="&ns_graphs;"
	 xmlns="http://www.w3.org/2000/svg" xmlns:xlink="http://www.w3.org/1999/xlink" x="0px" y="0px" viewBox="0 0 557.6 747.6"
	 style="enable-background:new 0 0 557.6 747.6;" xml:space="preserve">
<style type="text/css">
	.st0{fill:#EB5757;}
	.st1{fill:none;stroke:#EB5757;stroke-width:29;stroke-miterlimit:10;}
	.st2{fill:#606060;}
	.st3{fill:none;stroke:#EB5757;stroke-width:24;stroke-miterlimit:10;}
</style>
<metadata>
	<sfw  xmlns="&ns_sfw;">
		<slices></slices>
		<sliceSourceBounds  bottomLeftOrigin="true" height="607" width="487.8" x="34.9" y="-7.1"></sliceSourceBounds>
	</sfw>
</metadata>
<path class="st0" d="M498.7,147.7H58.9c-13.2,0-24,10.8-24,24v124.8h39.1v-86.4c0-13.2,10.8-24,24-24h362.3c13.2,0,24,10.8,24,24
	v362.3c0,13.2-10.8,24-24,24H98c-13.2,0-24-10.8-24-24v-90.3H34.9v129.4c0,13.2,10.8,24,24,24h439.8c13.2,0,24-10.8,24-24V171.8
	C522.7,158.5,511.9,147.7,498.7,147.7z"/>
<line class="st1" x1="363.9" y1="402.4" x2="34.9" y2="402.4"/>
<path class="st2" d="M103,754.7"/>
<polyline class="st3" points="256.2,522.1 358.2,403.9 256.2,282.7 "/>
</svg>
