<?xml version="1.0" encoding="utf-8"?>
<!-- Generator: Adobe Illustrator 25.2.1, SVG Export Plug-In . SVG Version: 6.00 Build 0)  -->
<!DOCTYPE svg PUBLIC "-//W3C//DTD SVG 1.1//EN" "http://www.w3.org/Graphics/SVG/1.1/DTD/svg11.dtd" [
	<!ENTITY ns_extend "http://ns.adobe.com/Extensibility/1.0/">
	<!ENTITY ns_ai "http://ns.adobe.com/AdobeIllustrator/10.0/">
	<!ENTITY ns_graphs "http://ns.adobe.com/Graphs/1.0/">
	<!ENTITY ns_vars "http://ns.adobe.com/Variables/1.0/">
	<!ENTITY ns_imrep "http://ns.adobe.com/ImageReplacement/1.0/">
	<!ENTITY ns_sfw "http://ns.adobe.com/SaveForWeb/1.0/">
	<!ENTITY ns_custom "http://ns.adobe.com/GenericCustomNamespace/1.0/">
	<!ENTITY ns_adobe_xpath "http://ns.adobe.com/XPath/1.0/">
]>
<svg version="1.1" id="Capa_1" xmlns:x="&ns_extend;" xmlns:i="&ns_ai;" xmlns:graph="&ns_graphs;"
	 xmlns="http://www.w3.org/2000/svg" xmlns:xlink="http://www.w3.org/1999/xlink" x="0px" y="0px" viewBox="0 0 557.6 747.6"
	 style="enable-background:new 0 0 557.6 747.6;" xml:space="preserve">
<style type="text/css">
	.st0{fill:#606060;}
</style>
<metadata>
	<sfw  xmlns="&ns_sfw;">
		<slices></slices>
		<sliceSourceBounds  bottomLeftOrigin="true" height="700.9" width="500.8" x="29.9" y="26"></sliceSourceBounds>
	</sfw>
</metadata>
<path class="st0" d="M430.5,287.8c12.2,0,23.3,0,34.5,0c15.9,0,31.8-0.1,47.7,0.1c11.6,0.2,17.6,6.5,17.9,18.1c0,0.8,0,1.6,0,2.3
	c0,107.7,0.1,215.3,0,323c-0.1,43.2-27.1,77.9-68.3,87.7c-7.5,1.8-15.5,2.5-23.2,2.5c-105.9,0.2-211.7,0.2-317.6,0.1
	c-53.3,0-91.5-38.4-91.5-91.8c-0.1-106.9,0-213.8,0-320.7c0-15.7,5.5-21.2,21.1-21.3c23.2,0,46.4,0,69.6,0c2.8,0,5.6,0,9.4,0
	c0-3.5,0-6.2,0-9c0-35.5-0.1-70.9,0-106.4C130.3,85.7,198.5,19,285,20.7c78.1,1.5,144.1,67.3,145.4,145.5
	c0.6,37.3,0.1,74.6,0.2,111.8C430.5,280.8,430.5,283.7,430.5,287.8z M396.2,287.4c0-44.1,2.1-87.5-0.5-130.6
	c-3.6-59.2-61.8-107.1-121-102.8c-64.9,4.7-111.1,54.1-111.3,119.4c-0.1,35.2,0,70.4,0,105.6c0,2.7,0.3,5.5,0.4,8.4
	C241.8,287.4,318.9,287.4,396.2,287.4z M230.2,558.3c0,4.4-0.1,8.9,0,13.3c0.5,27.8,22.4,49.7,49.8,49.8
	c27.4,0.1,49.7-21.7,50.3-49.4c0.2-9.1,0.3-18.3,0-27.4c-0.2-4.8,1.3-7.9,5-11.3c22.2-19.9,31.4-45.1,27.5-74.5
	c-4.7-35.7-32.9-64.1-68.3-70.3c-34.7-6.1-70.2,11-87.3,41.9c-17.3,31.3-13.3,70.8,11.8,96.3c9,9.2,12.8,17.9,11.1,29.9
	C230.1,557.2,230.2,557.7,230.2,558.3z"/>
</svg>
