<?xml version="1.0" encoding="utf-8"?>
<!-- Generator: Adobe Illustrator 25.2.1, SVG Export Plug-In . SVG Version: 6.00 Build 0)  -->
<!DOCTYPE svg PUBLIC "-//W3C//DTD SVG 1.1//EN" "http://www.w3.org/Graphics/SVG/1.1/DTD/svg11.dtd" [
	<!ENTITY ns_extend "http://ns.adobe.com/Extensibility/1.0/">
	<!ENTITY ns_ai "http://ns.adobe.com/AdobeIllustrator/10.0/">
	<!ENTITY ns_graphs "http://ns.adobe.com/Graphs/1.0/">
	<!ENTITY ns_vars "http://ns.adobe.com/Variables/1.0/">
	<!ENTITY ns_imrep "http://ns.adobe.com/ImageReplacement/1.0/">
	<!ENTITY ns_sfw "http://ns.adobe.com/SaveForWeb/1.0/">
	<!ENTITY ns_custom "http://ns.adobe.com/GenericCustomNamespace/1.0/">
	<!ENTITY ns_adobe_xpath "http://ns.adobe.com/XPath/1.0/">
]>
<svg version="1.1" id="Capa_1" xmlns:x="&ns_extend;" xmlns:i="&ns_ai;" xmlns:graph="&ns_graphs;"
	 xmlns="http://www.w3.org/2000/svg" xmlns:xlink="http://www.w3.org/1999/xlink" x="0px" y="0px" viewBox="0 0 533.1 545.4"
	 style="enable-background:new 0 0 533.1 545.4;" xml:space="preserve">
<style type="text/css">
	.st0{fill:#616160;}
</style>
<metadata>
	<sfw  xmlns="&ns_sfw;">
		<slices></slices>
		<sliceSourceBounds  bottomLeftOrigin="true" height="508.4" width="508.4" x="43.9" y="-673.5"></sliceSourceBounds>
	</sfw>
</metadata>
<path class="st0" d="M270.4,528.6c-140.5,2.1-256.5-110-258.5-250.3c-2-141,110-254.4,247.2-258C401.7,16.6,515.3,129,520.1,265
	C525.1,409.2,410.6,526.1,270.4,528.6z M457.3,396.1c59.1-90.4,47.5-224.7-54.3-302.5c-97.3-74.4-237.3-58.3-315,40.2
	C47.7,185,32.6,243.5,41.6,307.9c4.7,34.1,17.4,65.3,36.7,94c23.8-56.9,63.7-96.6,121.2-118.4c2.4-0.9,4.2-0.8,6.5,0.6
	c17.2,10.3,35.9,16.1,56,17.2c25.3,1.4,49-4.4,70.8-17.5c1.9-1.1,3.4-1.2,5.4-0.5c33.3,12.3,61.8,31.6,85.2,58.4
	C437.5,358,448.7,376.1,457.3,396.1z"/>
<path class="st0" d="M269.2,85c52.4-0.4,97.6,43.3,96.1,99c-1.4,51.6-43.8,93.8-96.9,93.5c-53.1-0.3-96-44-95.5-97
	C173.3,127.5,216.2,84.8,269.2,85z"/>
</svg>
